<svg width="315" height="262" viewBox="0 0 315 262" fill="none" xmlns="http://www.w3.org/2000/svg">
<rect width="315" height="262" fill="#FAFAFA"/>
<circle cx="158" cy="131" r="65.75" fill="#ECFFED" stroke="#A5D6A7" stroke-width="2.5"/>
<circle cx="158" cy="131" r="42.7208" stroke="#A5D6A7" stroke-width="0.558441"/>
<path d="M185.103 83.2905C179.684 82.1578 174.16 84.7414 171.541 89.6259C170.072 88.552 168.441 87.7957 166.666 87.4245C163.418 86.7457 160.033 87.3848 157.257 89.2013C154.48 91.0177 152.539 93.8628 151.86 97.1106C151.301 99.824 151.655 102.646 152.869 105.137C154.082 107.628 156.086 109.646 158.568 110.878L154.005 132.706L193.804 141.025L198.367 119.197C204.049 118.915 208.863 114.841 210.027 109.269C210.706 106.021 210.067 102.637 208.251 99.8602C206.434 97.0837 203.589 95.1424 200.341 94.4636C198.566 94.0924 196.768 94.1321 194.992 94.5276C194.549 89.0033 190.522 84.4231 185.103 83.2905ZM177.813 110.523L180.875 111.163L176.395 132.593L173.334 131.953L177.813 110.523ZM167.349 114.726L170.411 115.366L167.211 130.674L164.15 130.034L167.349 114.726ZM185.718 118.566L188.779 119.206L185.58 134.513L182.518 133.873L185.718 118.566ZM153.366 135.767L152.726 138.829C152.556 139.641 152.716 140.487 153.17 141.181C153.624 141.875 154.335 142.36 155.147 142.53L188.823 149.569C189.635 149.739 190.481 149.579 191.175 149.125C191.869 148.671 192.354 147.96 192.524 147.148L193.164 144.086L153.366 135.767Z" fill="#A5D6A7"/>
<path d="M119.601 119.973C123.562 119.969 131.017 122.538 137.382 130.338C138.041 131.145 138.223 132.239 137.727 133.156C137.372 133.811 136.853 134.641 136.112 135.571C135.979 135.733 135.911 135.939 135.92 136.148C135.93 136.357 136.016 136.556 136.162 136.706L141.219 141.798C142.624 143.213 143.06 145.093 141.833 146.666C140.687 148.137 138.43 148.328 137.316 146.832L118.809 121.974C118.174 121.121 118.537 119.975 119.601 119.973ZM113.879 126.524C115.529 128.103 118.306 130.939 120.78 134.334C122.057 136.085 122.055 138.508 120.535 140.276C120.22 140.641 119.875 141.017 119.499 141.389L128.628 151.093C130.017 152.57 130.196 154.899 128.747 156.317C128.577 156.486 128.398 156.644 128.209 156.79C128.047 156.91 127.839 157.039 127.601 157.17C125.828 158.152 123.647 157.312 122.631 155.558L115.952 144.03C115.507 144.272 115.052 144.497 114.59 144.703C112.458 145.653 110.137 144.959 108.824 143.234C106.283 139.891 104.361 136.419 103.322 134.386C102.792 133.35 103.116 132.103 104.049 131.409L110.82 126.368C111.753 125.673 113.039 125.72 113.879 126.524ZM105.774 130.124L110.883 137.679ZM109.096 127.651L114.869 134.712Z" fill="#A5D6A7"/>
<path d="M105.774 130.124L110.883 137.679M109.096 127.651L114.869 134.712M119.601 119.973C123.562 119.969 131.017 122.538 137.382 130.338C138.041 131.145 138.223 132.239 137.727 133.156C137.372 133.811 136.853 134.641 136.112 135.571C135.979 135.733 135.911 135.939 135.92 136.148C135.93 136.357 136.016 136.556 136.162 136.706L141.219 141.798C142.624 143.213 143.06 145.093 141.833 146.666C140.687 148.137 138.43 148.328 137.316 146.832L118.809 121.974C118.174 121.121 118.537 119.975 119.601 119.973ZM113.879 126.524C115.529 128.103 118.306 130.939 120.78 134.334C122.057 136.085 122.055 138.508 120.535 140.276C120.22 140.641 119.875 141.017 119.499 141.389L128.628 151.093C130.017 152.57 130.196 154.899 128.747 156.317C128.577 156.486 128.398 156.644 128.209 156.79C128.047 156.91 127.839 157.039 127.601 157.17C125.828 158.152 123.647 157.312 122.631 155.558L115.952 144.03C115.507 144.272 115.052 144.497 114.59 144.703C112.458 145.653 110.137 144.959 108.824 143.234C106.283 139.891 104.361 136.419 103.322 134.386C102.792 133.35 103.116 132.103 104.049 131.409L110.82 126.368C111.753 125.673 113.039 125.72 113.879 126.524Z" stroke="#ECFFED" stroke-width="0.864224" stroke-linecap="round" stroke-linejoin="round"/>
</svg>
